<svg width="142" height="32" viewBox="0 0 142 32" fill="none" xmlns="http://www.w3.org/2000/svg">
<path fill-rule="evenodd" clip-rule="evenodd" d="M102.779 15.7576H109.883C111.487 15.7576 112.811 17.0257 112.811 18.5734V25.0443H102.2C101.212 25.0443 100.41 24.2797 100.41 23.3287V21.0909C100.41 20.2145 101.156 19.4872 102.07 19.4872H107.963L107.347 20.7926H103.021C102.835 20.7926 102.611 20.9417 102.611 21.1469V22.9184C102.611 23.1236 102.816 23.2727 103.021 23.2727H110.536V19.0396C110.536 18.2191 109.809 17.5851 108.988 17.5851H101.939L102.779 15.7576ZM60.2797 13.7436V12.3636H57.986V15.049L60.2797 13.7436ZM57.986 16.3543L60.2797 15.049V25.0629H57.986V16.3543ZM71.8415 15.7576C73.4452 15.7576 74.7692 17.0257 74.7692 18.5734V25.0443H72.4755V19.0023C72.4755 18.1818 71.7483 17.5478 70.9278 17.5478H65.4266V25.0256H63.1329V15.7389C66.0233 15.7576 68.9324 15.7576 71.8415 15.7576ZM101.175 15.7576H95.4126C93.8089 15.7576 92.4849 17.0257 92.4849 18.5734V25.0443H94.7786V19.0023C94.7786 18.1818 95.5058 17.5478 96.3264 17.5478H100.298L101.175 15.7576ZM24.1958 25.0443H26.4895V18.5734C26.4895 17.0257 25.1655 15.7576 23.5618 15.7576H8.53149V25.0443H10.8252V17.9021C10.8252 17.697 11.0303 17.5664 11.2355 17.5664H15.9721C16.1585 17.5664 16.3823 17.7156 16.3823 17.9021V25.0443H18.6574V17.9021C18.6574 17.697 18.8625 17.5664 19.0676 17.5664H22.6667C23.4872 17.5664 24.2145 18.2005 24.2145 19.021L24.1958 25.0443ZM43.31 12.3823V25.0443H45.6038V12.3823H43.31ZM52.8392 25.0443H55.1329V18.5734C55.1329 17.0257 53.8089 15.7576 52.2052 15.7576H47.338L46.4802 17.5478H51.31C52.1306 17.5478 52.8578 18.1818 52.8578 19.0023L52.8392 25.0443ZM89.2215 12.3823V25.0443H78.8718C77.8835 25.0443 77.0816 24.2797 77.0816 23.3287V18.5734C77.0816 17.0257 78.4056 15.7576 80.0093 15.7576H85.9021L85.0443 17.5664H80.9231C80.1026 17.5664 79.3753 18.2005 79.3753 19.021V22.9184C79.3753 23.1236 79.5804 23.2727 79.7669 23.2727H86.9091V12.4009L89.2215 12.3823ZM30.8718 15.7576H37.9767C39.5804 15.7576 40.9045 17.0257 40.9045 18.5734V25.0443H30.2937C29.3054 25.0443 28.5035 24.2797 28.5035 23.3287V21.0909C28.5035 20.2145 29.2494 19.4872 30.1632 19.4872H36.056L35.4219 20.7926H31.0956C30.9091 20.7926 30.704 20.9417 30.704 21.1469V22.9184C30.704 23.1236 30.9091 23.2727 31.0956 23.2727H38.6107V19.0396C38.6107 18.2191 37.8835 17.5851 37.063 17.5851H30.014L30.8718 15.7576Z" fill="#FF3E5B"/>
<path fill-rule="evenodd" clip-rule="evenodd" d="M128.382 11.2634V11.2075C128.438 10.8905 128.494 10.6107 128.587 10.331C128.681 10.0699 128.793 9.82752 128.96 9.62239C129.128 9.41726 129.333 9.24943 129.594 9.13754C129.855 9.02565 130.172 8.96971 130.564 8.96971H131.552L131.72 8.98835C131.888 9.007 132.056 9.06295 132.205 9.13754C132.354 9.21213 132.485 9.28672 132.597 9.39861C132.709 9.5105 132.82 9.64104 132.876 9.79022C132.932 9.9394 132.97 10.0886 132.97 10.2751V10.387L132.951 10.4988C132.914 10.7786 132.839 11.0023 132.765 11.1888C132.671 11.3753 132.578 11.5058 132.429 11.6177C132.298 11.711 132.131 11.7856 131.944 11.8229C131.758 11.8601 131.552 11.8788 131.31 11.8788H129.445C129.408 12.0653 129.408 12.2518 129.408 12.4009C129.408 12.5501 129.445 12.6807 129.501 12.7739C129.557 12.8671 129.669 12.9417 129.818 12.9977C129.986 13.0536 130.21 13.0723 130.508 13.0723H132.522L132 13.9487H129.911C129.24 13.9487 128.83 13.7809 128.587 13.4825C128.345 13.1842 128.252 12.8112 128.252 12.3823C128.252 12.2145 128.27 12.028 128.289 11.8415C128.326 11.6364 128.345 11.4499 128.382 11.2634ZM120.364 9.45456L121.688 8.70863L120.904 13.8928H119.636L119.748 13.1655C119.935 11.9534 120.121 10.7413 120.289 9.52915V9.49185L120.364 9.45456ZM120.737 7.47786H121.874L121.781 8.14919L120.382 8.93241L120.606 7.47786H120.737ZM127.17 9.24943L126.779 9.88346H124.727L124.541 9.90211C124.485 9.90211 124.429 9.92076 124.373 9.9394C124.336 9.95805 124.28 9.9767 124.261 9.99535C124.242 10.014 124.205 10.0513 124.186 10.0886C124.168 10.1259 124.149 10.1818 124.131 10.2191C124.112 10.2564 124.112 10.3124 124.112 10.3683C124.112 10.4056 124.112 10.4429 124.131 10.4802C124.149 10.5175 124.168 10.5548 124.205 10.5921C124.242 10.6294 124.28 10.648 124.336 10.6853C124.392 10.704 124.466 10.7413 124.522 10.7599L126.238 11.1702C126.443 11.2261 126.629 11.2821 126.779 11.3753C126.928 11.4685 127.058 11.5804 127.151 11.711C127.245 11.8415 127.319 12.0093 127.338 12.1772C127.375 12.345 127.375 12.5315 127.338 12.718C127.301 12.9417 127.226 13.1469 127.114 13.296C127.021 13.4452 126.89 13.5758 126.741 13.669C126.592 13.7622 126.424 13.8182 126.238 13.8555C126.051 13.8928 125.865 13.9114 125.66 13.9114H122.303L122.825 13.0536H124.988C125.138 13.0536 125.268 13.0536 125.399 13.035C125.529 13.0163 125.641 12.9977 125.734 12.9604C125.827 12.9231 125.902 12.8671 125.958 12.7926C126.014 12.718 126.07 12.6061 126.089 12.4755C126.107 12.3823 126.089 12.3077 126.07 12.2518C126.033 12.1958 125.995 12.1399 125.921 12.0839C125.846 12.028 125.753 11.9907 125.678 11.9534C125.585 11.9161 125.492 11.8974 125.399 11.8788L123.888 11.5245C123.702 11.4872 123.534 11.4126 123.385 11.338C123.235 11.2448 123.124 11.1515 123.03 11.021C122.937 10.8905 122.881 10.7599 122.844 10.5921C122.807 10.4429 122.825 10.2751 122.844 10.0886C122.881 9.88346 122.956 9.69698 123.03 9.5478C123.124 9.39861 123.235 9.28672 123.385 9.19348C123.515 9.11889 123.664 9.06295 123.832 9.02565C124 8.98835 124.186 8.96971 124.373 8.96971H127.282L127.17 9.24943ZM116.858 13.8182L115.422 11.0023H114.042L113.613 13.8928H112.345L112.531 12.7366C112.83 10.8159 113.128 8.89511 113.389 6.99302V6.93707H117.063L117.249 6.95572C117.473 6.99302 117.678 7.04896 117.846 7.1422C118.033 7.23544 118.182 7.36598 118.312 7.51516C118.443 7.66435 118.517 7.83218 118.592 8.01866C118.648 8.20514 118.685 8.41027 118.685 8.63404V8.82052L118.667 9.02565C118.611 9.37996 118.517 9.65968 118.387 9.88346C118.256 10.1072 118.07 10.2937 117.883 10.4243C117.697 10.5548 117.51 10.6294 117.287 10.704C117.1 10.7599 116.914 10.7972 116.709 10.8345L118.35 13.8928H116.914L116.858 13.8182ZM116.392 7.86947H114.508L114.172 10.1445H115.646C115.869 10.1445 116.093 10.1259 116.298 10.0886C116.503 10.0513 116.69 9.99535 116.858 9.90211C117.007 9.80887 117.156 9.69698 117.249 9.5478C117.343 9.39861 117.436 9.21213 117.473 8.96971C117.51 8.76458 117.51 8.5781 117.473 8.42891C117.436 8.29838 117.38 8.18649 117.305 8.09325C117.212 8.00001 117.1 7.94407 116.97 7.90677C116.802 7.88812 116.615 7.86947 116.392 7.86947ZM131.012 9.82752H130.564C130.172 9.82752 129.949 9.9767 129.818 10.2005C129.688 10.4243 129.632 10.7226 129.576 11.0583H131.086C131.179 11.0583 131.254 11.0396 131.329 11.021C131.385 11.0023 131.459 10.965 131.496 10.9277C131.552 10.8905 131.608 10.8159 131.646 10.7413C131.683 10.6667 131.72 10.5548 131.739 10.4429C131.758 10.2937 131.758 10.1818 131.739 10.1072C131.72 10.0326 131.683 9.9767 131.627 9.9394C131.571 9.90211 131.478 9.86481 131.385 9.84616C131.273 9.84616 131.142 9.82752 131.012 9.82752Z" fill="#FF3E5B"/>
</svg>
