<svg width="24" height="24" viewBox="0 0 24 24" fill="none" xmlns="http://www.w3.org/2000/svg">
<path fill-rule="evenodd" clip-rule="evenodd" d="M2.57576 2.57576C2.81007 2.34145 3.18997 2.34145 3.42429 2.57576L12 11.1515L20.5758 2.57576C20.8101 2.34145 21.19 2.34145 21.4243 2.57576C21.6586 2.81008 21.6586 3.18997 21.4243 3.42429L12.8486 12L21.4243 20.5758C21.6586 20.8101 21.6586 21.19 21.4243 21.4243C21.19 21.6586 20.8101 21.6586 20.5758 21.4243L12 12.8486L3.42429 21.4243C3.18997 21.6586 2.81008 21.6586 2.57576 21.4243C2.34145 21.19 2.34145 20.8101 2.57576 20.5758L11.1515 12L2.57576 3.42429C2.34145 3.18997 2.34145 2.81007 2.57576 2.57576Z" fill="#635D5D"/>
</svg>
