<svg width="24" height="25" viewBox="0 0 24 25" fill="none" xmlns="http://www.w3.org/2000/svg">
<path fill-rule="evenodd" clip-rule="evenodd" d="M12 3.11157C12.3314 3.11157 12.6 3.3802 12.6 3.71157V13.5272L15.7505 9.96413C15.97 9.71588 16.3492 9.69258 16.5974 9.91208C16.8457 10.1316 16.869 10.5108 16.6495 10.759L12.4495 15.509C12.3356 15.6378 12.1719 15.7116 12 15.7116C11.8281 15.7116 11.6644 15.6378 11.5505 15.509L7.35051 10.759C7.131 10.5108 7.15431 10.1316 7.40255 9.91208C7.6508 9.69258 8.02998 9.71588 8.24948 9.96413L11.4 13.5272V3.71157C11.4 3.3802 11.6686 3.11157 12 3.11157ZM2.99999 15.1116C3.33136 15.1116 3.59999 15.3802 3.59999 15.7116V19.8116C3.59999 20.1461 3.73961 20.4736 3.99903 20.7201C4.2595 20.9675 4.61904 21.1116 4.99999 21.1116H19C19.3809 21.1116 19.7405 20.9675 20.001 20.7201C20.2604 20.4736 20.4 20.1461 20.4 19.8116V15.7116C20.4 15.3802 20.6686 15.1116 21 15.1116C21.3314 15.1116 21.6 15.3802 21.6 15.7116V19.8116C21.6 20.4848 21.3182 21.1239 20.8275 21.5901C20.3378 22.0553 19.6799 22.3116 19 22.3116H4.99999C4.32008 22.3116 3.66221 22.0553 3.17253 21.5901C2.68181 21.1239 2.39999 20.4848 2.39999 19.8116V15.7116C2.39999 15.3802 2.66862 15.1116 2.99999 15.1116Z" fill="#FF3E5B"/>
</svg>
