<svg width="20" height="21" viewBox="0 0 20 21" fill="none" xmlns="http://www.w3.org/2000/svg">
<path fill-rule="evenodd" clip-rule="evenodd" d="M7.125 4C6.71079 4 6.375 4.33579 6.375 4.75V5.5H13.625V4.75C13.625 4.33579 13.2892 4 12.875 4H7.125ZM5.375 4.75V5.5H4.25045H3C2.72386 5.5 2.5 5.72386 2.5 6C2.5 6.27614 2.72386 6.5 3 6.5H3.77645L4.3115 16.345C4.36195 17.2732 5.12932 18 6.05892 18H9.74999H10H13.6911C14.6207 18 15.3881 17.2732 15.4385 16.345L15.9736 6.5H17C17.2761 6.5 17.5 6.27614 17.5 6C17.5 5.72386 17.2761 5.5 17 5.5H15.4995H14.625V4.75C14.625 3.7835 13.8415 3 12.875 3H7.125C6.1585 3 5.375 3.7835 5.375 4.75ZM4.77792 6.5L5.31003 16.2907C5.33165 16.6885 5.66052 17 6.05892 17H9.74999H10H13.6911C14.0895 17 14.4184 16.6885 14.44 16.2907L14.9721 6.5H4.77792ZM7.24918 8.47122C7.23328 8.19553 6.9969 7.98494 6.72122 8.00084C6.44553 8.01675 6.23494 8.25313 6.25084 8.52881L6.62584 15.0288C6.64175 15.3045 6.87813 15.5151 7.15381 15.4992C7.4295 15.4833 7.64009 15.2469 7.62419 14.9712L7.24918 8.47122ZM13.0288 8.00084C12.7531 7.98494 12.5167 8.19553 12.5008 8.47122L12.1258 14.9712C12.1099 15.2469 12.3205 15.4833 12.5962 15.4992C12.8719 15.5151 13.1083 15.3045 13.1242 15.0288L13.4992 8.52881C13.5151 8.25313 13.3045 8.01675 13.0288 8.00084ZM9.5 8.5C9.5 8.22386 9.72386 8 10 8C10.2761 8 10.5 8.22386 10.5 8.5V15C10.5 15.2761 10.2761 15.5 10 15.5C9.72386 15.5 9.5 15.2761 9.5 15V8.5Z" fill="#FF3E5B"/>
</svg>
