<svg width="24" height="24" viewBox="0 0 24 24" fill="none" xmlns="http://www.w3.org/2000/svg">
<path fill-rule="evenodd" clip-rule="evenodd" d="M12 3.60002C7.3608 3.60002 3.59999 7.36083 3.59999 12C3.59999 16.6392 7.3608 20.4 12 20.4C16.6392 20.4 20.4 16.6392 20.4 12C20.4 7.36083 16.6392 3.60002 12 3.60002ZM2.39999 12C2.39999 6.69809 6.69806 2.40002 12 2.40002C17.3019 2.40002 21.6 6.69809 21.6 12C21.6 17.302 17.3019 21.6 12 21.6C6.69806 21.6 2.39999 17.302 2.39999 12ZM12 6.81587C12.3314 6.81587 12.6 7.0845 12.6 7.41587V7.50002C12.6 7.8314 12.3314 8.10002 12 8.10002C11.6686 8.10002 11.4 7.8314 11.4 7.50002V7.41587C11.4 7.0845 11.6686 6.81587 12 6.81587ZM12 9.40002C12.3314 9.40002 12.6 9.66865 12.6 10V17C12.6 17.3314 12.3314 17.6 12 17.6C11.6686 17.6 11.4 17.3314 11.4 17V10C11.4 9.66865 11.6686 9.40002 12 9.40002Z" fill="#FF7A00"/>
</svg>
